<svg width="27" height="27" viewBox="0 0 27 27" fill="none" xmlns="http://www.w3.org/2000/svg">
<path d="M8.775 2.25024H18.225C21.825 2.25024 24.75 5.17524 24.75 8.77524V18.2252C24.75 19.9558 24.0625 21.6154 22.8389 22.8391C21.6152 24.0628 19.9555 24.7502 18.225 24.7502H8.775C5.175 24.7502 2.25 21.8252 2.25 18.2252V8.77524C2.25 7.04471 2.93745 5.38505 4.16113 4.16137C5.3848 2.9377 7.04446 2.25024 8.775 2.25024ZM8.55 4.50024C7.47587 4.50024 6.44574 4.92694 5.68622 5.68646C4.9267 6.44598 4.5 7.47612 4.5 8.55024V18.4502C4.5 20.689 6.31125 22.5002 8.55 22.5002H18.45C19.5241 22.5002 20.5543 22.0735 21.3138 21.314C22.0733 20.5545 22.5 19.5244 22.5 18.4502V8.55024C22.5 6.31149 20.6887 4.50024 18.45 4.50024H8.55ZM19.4062 6.18774C19.7792 6.18774 20.1369 6.3359 20.4006 6.59963C20.6643 6.86335 20.8125 7.22103 20.8125 7.59399C20.8125 7.96695 20.6643 8.32464 20.4006 8.58836C20.1369 8.85209 19.7792 9.00024 19.4062 9.00024C19.0333 9.00024 18.6756 8.85209 18.4119 8.58836C18.1482 8.32464 18 7.96695 18 7.59399C18 7.22103 18.1482 6.86335 18.4119 6.59963C18.6756 6.3359 19.0333 6.18774 19.4062 6.18774ZM13.5 7.87524C14.9918 7.87524 16.4226 8.46788 17.4775 9.52277C18.5324 10.5777 19.125 12.0084 19.125 13.5002C19.125 14.9921 18.5324 16.4228 17.4775 17.4777C16.4226 18.5326 14.9918 19.1252 13.5 19.1252C12.0082 19.1252 10.5774 18.5326 9.52252 17.4777C8.46763 16.4228 7.875 14.9921 7.875 13.5002C7.875 12.0084 8.46763 10.5777 9.52252 9.52277C10.5774 8.46788 12.0082 7.87524 13.5 7.87524ZM13.5 10.1252C12.6049 10.1252 11.7464 10.4808 11.1135 11.1138C10.4806 11.7467 10.125 12.6051 10.125 13.5002C10.125 14.3953 10.4806 15.2538 11.1135 15.8867C11.7464 16.5197 12.6049 16.8752 13.5 16.8752C14.3951 16.8752 15.2536 16.5197 15.8865 15.8867C16.5194 15.2538 16.875 14.3953 16.875 13.5002C16.875 12.6051 16.5194 11.7467 15.8865 11.1138C15.2536 10.4808 14.3951 10.1252 13.5 10.1252Z" fill="#C9C9C9"/>
</svg>
