<svg width="27" height="27" viewBox="0 0 27 27" fill="none" xmlns="http://www.w3.org/2000/svg">
<path d="M13.545 2.25024C7.40252 2.25024 2.39627 7.25649 2.39627 13.399C2.39627 15.3677 2.91377 17.2802 3.88127 18.9677L2.30627 24.7502L8.21252 23.1977C9.84377 24.0865 11.6775 24.559 13.545 24.559C19.6875 24.559 24.6938 19.5527 24.6938 13.4102C24.6938 10.429 23.535 7.62774 21.4313 5.52399C19.3275 3.40899 16.5263 2.25024 13.545 2.25024ZM13.5563 4.12899C16.0313 4.12899 18.3488 5.09649 20.1038 6.85149C21.8475 8.60649 22.815 10.9352 22.815 13.4102C22.815 18.5177 18.6525 22.669 13.545 22.669C11.88 22.669 10.2488 22.2302 8.83127 21.3752L8.49377 21.184L4.98377 22.1065L5.91752 18.6865L5.69252 18.3265C4.77002 16.8752 4.27502 15.154 4.27502 13.399C4.28627 8.29149 8.43752 4.12899 13.5563 4.12899ZM9.59627 8.24649C9.41627 8.24649 9.11252 8.31399 8.85377 8.59524C8.60627 8.87649 7.87502 9.56274 7.87502 10.924C7.87502 12.2965 8.87627 13.6127 9.00002 13.804C9.15752 13.9952 10.98 16.8077 13.7813 18.0002C14.445 18.304 14.9625 18.4727 15.3675 18.5965C16.0313 18.8102 16.6388 18.7765 17.1225 18.709C17.6625 18.6302 18.765 18.034 19.0013 17.3815C19.2375 16.729 19.2375 16.1777 19.17 16.054C19.0913 15.9415 18.9113 15.874 18.63 15.7502C18.3488 15.5927 16.9763 14.9177 16.7288 14.8277C16.47 14.7377 16.3125 14.6927 16.0988 14.9627C15.9188 15.244 15.3788 15.874 15.2213 16.054C15.0525 16.2452 14.895 16.2677 14.625 16.1327C14.3325 15.9865 13.4325 15.694 12.375 14.749C11.5425 14.0065 10.9913 13.0952 10.8225 12.814C10.6875 12.544 10.8113 12.3752 10.9463 12.2515C11.07 12.1277 11.25 11.9252 11.3625 11.7565C11.5088 11.599 11.5538 11.4752 11.6438 11.2952C11.7338 11.104 11.6888 10.9465 11.6213 10.8115C11.5538 10.6877 10.9913 9.29274 10.755 8.74149C10.53 8.20149 10.305 8.26899 10.125 8.25774C9.96752 8.25774 9.78752 8.24649 9.59627 8.24649Z" fill="#C9C9C9"/>
</svg>
