<svg width="56" height="56" viewBox="0 0 56 56" fill="none" xmlns="http://www.w3.org/2000/svg">
<path d="M17.2384 45.3841L3 42.6021V8.62915L7.41501 9.56734M27.9448 47.0397L24.7173 46.4654" stroke="#FF6200" stroke-width="3.0303" stroke-miterlimit="10" stroke-linecap="round" stroke-linejoin="round"/>
<path d="M28.0552 13.9378V46.1568C28.0442 46.1508 28.035 46.1448 28.0242 46.1402C28.0096 46.1311 27.9968 46.1235 27.9822 46.116C27.9712 46.1099 27.9603 46.1039 27.9493 46.0993C27.9365 46.0902 27.922 46.0827 27.9092 46.0767C27.9074 46.0752 27.9037 46.0736 27.9018 46.0722V14.089C27.9036 14.086 27.9073 14.083 27.9092 14.0799V13.9061C27.8854 13.8758 27.8617 13.8456 27.8344 13.8169C27.86 13.8289 27.8836 13.8426 27.9092 13.8577C27.9328 13.8697 27.9584 13.8833 27.9822 13.897C27.9967 13.9045 28.0095 13.912 28.0242 13.9212C28.0278 13.9226 28.0333 13.9257 28.0369 13.9272C28.0424 13.9319 28.0497 13.9349 28.0552 13.9378Z" stroke="#FF6200" stroke-width="3.0303" stroke-miterlimit="10" stroke-linecap="round" stroke-linejoin="round"/>
<path d="M27.9448 13.9508V14.125C27.9426 14.1281 27.9403 14.1313 27.9381 14.1344V46.0464C26.8614 44.5933 25.6981 43.284 24.4832 42.1206C22.5467 40.2657 20.4776 38.7781 18.4141 37.6597C15.1806 35.9046 11.9618 35.0537 9.29138 35.1073V3.00227C14.4872 2.90051 21.7611 6.2199 27.1817 12.9594C27.4177 13.2532 27.6515 13.5543 27.8785 13.8616C27.9021 13.891 27.9234 13.9204 27.9448 13.9508Z" stroke="#FF6200" stroke-width="3.0303" stroke-miterlimit="10" stroke-linecap="round" stroke-linejoin="round"/>
<path d="M28.0552 14.1098V46.1566C28.054 46.1535 28.0515 46.1505 28.0502 46.1475C28.0476 46.1444 28.0464 46.1399 28.0439 46.1369C28.0363 46.1249 28.0301 46.1112 28.0226 46.0991C28.015 46.0855 28.0076 46.0734 28 46.0613C27.9837 46.0311 27.9674 46.0024 27.9499 45.9736C27.9499 45.9706 27.9473 45.9676 27.9448 45.9645V14.1098C27.946 14.1068 27.9486 14.1038 27.9499 14.1007V13.927C27.9536 13.9315 27.9561 13.9345 27.9574 13.939C27.9599 13.9421 27.9612 13.9451 27.9625 13.9482C27.965 13.9512 27.9662 13.9527 27.9662 13.9557C27.9787 13.9754 27.99 13.995 28 14.0147C28.0176 14.0433 28.0338 14.072 28.0502 14.1007C28.0514 14.1038 28.0539 14.1068 28.0552 14.1098Z" stroke="#FF6200" stroke-width="3.0303" stroke-miterlimit="10" stroke-linecap="round" stroke-linejoin="round"/>
<path d="M28.0613 46.1024V46.1871C28.0597 46.1841 28.0566 46.181 28.0552 46.178V47.0397L53 42.6026V8.62915L48.5298 9.62253" stroke="#FF6200" stroke-width="3.0303" stroke-miterlimit="10" stroke-linecap="round" stroke-linejoin="round"/>
<path d="M28.0552 14.0993V46.134L28.0499 46.1354L28.0434 46.1369L28.0276 46.1399L27.9974 46.146L27.9448 46.1566V13.9482L27.9619 13.9451L27.9973 13.9376L28.0275 13.9315L28.042 13.9285L28.0499 13.927V14.0902C28.0512 14.0933 28.0538 14.0963 28.0552 14.0993Z" stroke="#FF6200" stroke-width="3.0303" stroke-miterlimit="10" stroke-linecap="round" stroke-linejoin="round"/>
<path d="M28.0178 14.0799C28.0187 14.083 28.0205 14.086 28.0215 14.089V46.0722C28.0206 46.0736 28.0188 46.0752 28.0178 46.0767C28.0114 46.0828 28.0042 46.0903 27.9978 46.0993C27.9923 46.1038 27.9868 46.1099 27.9813 46.116C27.974 46.1235 27.9677 46.1311 27.9603 46.1402C27.9548 46.1447 27.9503 46.1508 27.9448 46.1568V13.9378C27.9475 13.9348 27.9512 13.9317 27.9539 13.9272C27.9558 13.9258 27.9585 13.9227 27.9603 13.9212C27.9676 13.912 27.974 13.9045 27.9813 13.897C27.9932 13.8833 28.0059 13.8697 28.0178 13.8577C28.0306 13.8426 28.0424 13.8289 28.0552 13.8169C28.0415 13.8456 28.0296 13.8758 28.0178 13.9061V14.0799Z" stroke="#FF6200" stroke-width="3.0303" stroke-miterlimit="10" stroke-linecap="round" stroke-linejoin="round"/>
<path d="M46.7087 3.00225V35.0793C41.2562 34.9719 33.5201 38.6143 28.0271 46.0095V14.1246C28.0255 14.1215 28.0223 14.1185 28.0206 14.1154V13.9415C28.0417 13.9113 28.0628 13.8811 28.0871 13.8523C28.3162 13.5454 28.5485 13.2445 28.7872 12.9512C34.2169 6.21682 41.5031 2.90099 46.7087 3.00225ZM24.4227 42.087V53L21.3824 50.1698L18.3422 53V37.63C20.4096 38.7474 22.4825 40.2338 24.4227 42.087Z" stroke="#FF6200" stroke-width="3.0303" stroke-miterlimit="10" stroke-linecap="round" stroke-linejoin="round"/>
</svg>
