<svg width="233" height="56" viewBox="0 0 233 56" fill="none" xmlns="http://www.w3.org/2000/svg">
<g clip-path="url(#clip0_152_2802)">
<path fill-rule="evenodd" clip-rule="evenodd" d="M204.226 39.5957C206.341 40.7283 208.713 41.2945 211.344 41.2945C213.975 41.2945 216.348 40.7283 218.462 39.5957C220.577 38.4385 222.236 36.8504 223.441 34.8315C224.646 32.8126 225.248 30.5351 225.248 27.9991C225.248 25.4632 224.646 23.1857 223.441 21.1668C222.236 19.1478 220.577 17.5721 218.462 16.4395C216.348 15.2823 213.975 14.7037 211.344 14.7037C208.713 14.7037 206.341 15.2823 204.226 16.4395C202.112 17.5721 200.452 19.1602 199.247 21.2037C198.042 23.2226 197.44 25.4878 197.44 27.9991C197.44 30.5105 198.042 32.7879 199.247 34.8315C200.452 36.8504 202.112 38.4385 204.226 39.5957ZM215.991 35.9394C214.614 36.7027 213.065 37.0843 211.344 37.0843C209.623 37.0843 208.074 36.7027 206.697 35.9394C205.32 35.1516 204.238 34.0682 203.452 32.6895C202.665 31.2861 202.271 29.7226 202.271 27.9991C202.271 26.2757 202.665 24.7245 203.452 23.3457C204.238 21.9423 205.32 20.859 206.697 20.0958C208.074 19.3079 209.623 18.9139 211.344 18.9139C213.065 18.9139 214.614 19.3079 215.991 20.0958C217.368 20.859 218.45 21.9423 219.237 23.3457C220.024 24.7245 220.417 26.2757 220.417 27.9991C220.417 29.7226 220.024 31.2861 219.237 32.6895C218.45 34.0682 217.368 35.1516 215.991 35.9394ZM150.926 41.2945C147.36 41.2945 144.582 40.2974 142.59 38.3031C140.599 36.2841 139.603 33.4035 139.603 29.6611V15.0731H144.398V29.4764C144.398 34.5484 146.586 37.0843 150.962 37.0843C155.314 37.0843 157.49 34.5484 157.49 29.4764V15.0731H162.211V29.6611C162.211 33.4035 161.215 36.2841 159.224 38.3031C157.257 40.2974 154.491 41.2945 150.926 41.2945ZM178.097 19.1355H169.557V15.0731H191.464V19.1355H183.161L183.16 19.1085H178.103L178.097 19.1355ZM178.113 22.643V40.9252H182.908V22.6754C182.436 22.3938 181.726 22.1265 180.468 22.1265C179.483 22.1265 178.686 22.3645 178.113 22.643Z" fill="#0E0E0E"/>
<path fill-rule="evenodd" clip-rule="evenodd" d="M12.1843 40.4451C14.0549 41.0114 15.987 41.2945 17.9806 41.2945C20.2449 41.2945 22.1647 40.9498 23.7399 40.2605C25.3151 39.5711 26.4842 38.6478 27.2472 37.4906C28.0348 36.3334 28.4286 35.0408 28.4286 33.6128C28.4286 31.9385 27.9856 30.609 27.0995 29.6241C26.2381 28.6393 25.1921 27.913 23.9614 27.4452C22.7308 26.9527 21.1556 26.4849 19.2358 26.0418C17.8329 25.6971 16.7254 25.3893 15.9131 25.1185C15.3844 24.9422 14.9131 24.7241 14.4991 24.4644C14.2725 24.7552 14.0832 25.1568 13.9901 25.7152C13.8107 26.7916 14.2013 28.438 14.5832 29.2722C15.4618 29.5372 16.4589 29.8023 17.5745 30.0673C18.9774 30.412 20.085 30.7198 20.8972 30.9906C21.7094 31.2614 22.3739 31.6431 22.8908 32.1355C23.4323 32.6033 23.703 33.2065 23.703 33.9451C23.703 34.9546 23.2231 35.7671 22.2632 36.3826C21.3279 36.9982 19.9004 37.3059 17.9806 37.3059C16.43 37.3059 14.8794 37.0474 13.3288 36.5304C11.8029 35.9887 10.5107 35.2993 9.45236 34.4622L7.79102 38.1923C8.87397 39.1279 10.3384 39.8788 12.1843 40.4451ZM15.912 19.0137C16.687 18.7995 17.6227 18.6924 18.719 18.6924C19.8758 18.6924 21.0695 18.8647 22.3001 19.2094C23.5307 19.5541 24.7121 20.0588 25.8443 20.7236L27.358 16.9935C26.2504 16.2549 24.9336 15.6886 23.4077 15.2946C21.8817 14.9007 20.3311 14.7037 18.7559 14.7037C16.4915 14.7037 14.5718 15.0484 12.9966 15.7378C11.446 16.4272 10.2769 17.3628 9.48928 18.5446C8.72629 19.7018 8.3448 20.9944 8.3448 22.4225C8.3448 24.1213 8.77552 25.4755 9.63695 26.4849C9.7928 26.6582 9.95359 26.8234 10.1193 26.9806C10.1539 26.0451 10.3421 25.0721 10.699 24.1098C11.6962 21.4218 13.7466 19.5293 15.912 19.0137ZM43.1557 34.3145L47.2537 30.1042L47.2827 30.147L47.2694 30.12L51.303 25.849L51.2813 25.817L60.341 15.0731H54.9508L43.1557 28.3315V15.0731H38.3563V40.9252H43.1557V34.3145ZM53.8076 29.8998L53.8071 29.8998C53.5073 29.9054 53.2093 29.9109 52.9724 29.9516C50.5707 30.3645 49.8528 32.3288 49.6106 33.5862L54.5782 40.9252H61.4949L54.0381 29.8949C53.9618 29.897 53.8846 29.8984 53.8076 29.8998ZM81.526 40.9252V31.8301L79.0805 27.3466L79.0882 27.3285L72.3582 15.0731H66.5739L76.7266 31.877V40.9252H81.526ZM86.2636 15.0731L81.0335 24.4966C81.2844 25.6614 81.9252 27.3213 83.5476 28.4597L91.6418 15.0731H86.2636Z" fill="#0E0E0E"/>
<path fill-rule="evenodd" clip-rule="evenodd" d="M118.362 15.3562V21.2287H119.595V15.3562H123.256C123.751 15.3562 124.189 15.6743 124.342 16.1443L132.051 39.7987C132.291 40.5367 131.741 41.2945 130.965 41.2945H119.595V34.6056H118.362V41.2945H106.981C106.208 41.2945 105.658 40.5421 105.893 39.8054L113.441 16.151C113.592 15.6776 114.032 15.3562 114.529 15.3562H118.362ZM119.595 24.0021H118.362V31.8325H119.595V24.0021Z" fill="#0E0E0E"/>
</g>
<defs>
<clipPath id="clip0_152_2802">
<rect width="233" height="56" fill="white"/>
</clipPath>
</defs>
</svg>
