<svg width="33" height="34" viewBox="0 0 33 34" fill="none" xmlns="http://www.w3.org/2000/svg">
<g clip-path="url(#clip0_170_82)">
<path d="M16.5 33.591C25.6127 33.591 33 26.2037 33 17.0911C33 7.97836 25.6127 0.591064 16.5 0.591064C7.38733 0.591064 3.05176e-05 7.97836 3.05176e-05 17.0911C3.05176e-05 26.2037 7.38733 33.591 16.5 33.591Z" fill="#FEFEFE"/>
<path d="M6.65852 16.1372L23.4862 9.74426C24.2673 9.46624 24.9494 9.93199 24.6963 11.0957L24.6978 11.0942L21.8326 24.3947C21.6202 25.3376 21.0515 25.5669 20.256 25.1227L15.8927 21.9541L13.7881 23.9518C13.5554 24.1811 13.3591 24.3746 12.9082 24.3746L13.218 19.9994L21.3046 12.801C21.6566 12.4958 21.2261 12.3238 20.7621 12.6276L10.7687 18.8271L6.46072 17.503C5.52552 17.2106 5.50516 16.5815 6.65852 16.1372Z" fill="#2C2C2C"/>
</g>
<defs>
<clipPath id="clip0_170_82">
<rect width="33" height="33" fill="white" transform="translate(3.05176e-05 0.591064)"/>
</clipPath>
</defs>
</svg>
