<svg width="20" height="20" viewBox="0 0 20 20" fill="none" xmlns="http://www.w3.org/2000/svg">
<g clip-path="url(#clip0_73_1358)">
<path d="M12.3565 6.46403L7.64317 11.1782C7.56358 11.2551 7.50009 11.347 7.45642 11.4487C7.41275 11.5504 7.38976 11.6597 7.3888 11.7704C7.38783 11.881 7.40892 11.9907 7.45082 12.0932C7.49272 12.1956 7.5546 12.2886 7.63284 12.3669C7.71109 12.4451 7.80413 12.507 7.90654 12.5489C8.00896 12.5908 8.11869 12.6119 8.22934 12.6109C8.33999 12.6099 8.44934 12.587 8.55101 12.5433C8.65268 12.4996 8.74463 12.4361 8.8215 12.3565L13.5357 7.6432C14.0046 7.17432 14.268 6.53838 14.268 5.87528C14.268 5.21218 14.0046 4.57625 13.5357 4.10737C13.0668 3.63848 12.4309 3.37507 11.7678 3.37507C11.1047 3.37507 10.4687 3.63848 9.99984 4.10737L5.28567 8.82153C4.89073 9.20664 4.5762 9.66633 4.3603 10.1739C4.14441 10.6816 4.03146 11.227 4.028 11.7786C4.02455 12.3302 4.13065 12.877 4.34017 13.3873C4.54968 13.8976 4.85844 14.3612 5.24852 14.7512C5.6386 15.1412 6.10224 15.4499 6.61255 15.6593C7.12286 15.8688 7.66968 15.9748 8.22128 15.9713C8.77289 15.9678 9.3183 15.8547 9.82589 15.6388C10.3335 15.4228 10.7931 15.1082 11.1782 14.7132L15.8923 9.99987L17.0707 11.1782L12.3565 15.8924C11.8148 16.4341 11.1717 16.8638 10.4639 17.1569C9.75617 17.4501 8.99759 17.601 8.2315 17.601C7.46542 17.601 6.70684 17.4501 5.99907 17.1569C5.2913 16.8638 4.64821 16.4341 4.1065 15.8924C3.5648 15.3507 3.1351 14.7076 2.84193 13.9998C2.54876 13.292 2.39787 12.5334 2.39787 11.7674C2.39787 11.0013 2.54876 10.2427 2.84193 9.53493C3.1351 8.82716 3.5648 8.18407 4.1065 7.64236L8.8215 2.92903C9.60735 2.17004 10.6599 1.75006 11.7523 1.75956C12.8448 1.76905 13.8899 2.20725 14.6624 2.97979C15.4349 3.75232 15.8732 4.79737 15.8826 5.88986C15.8921 6.98235 15.4722 8.03486 14.7132 8.8207L9.99984 13.5365C9.76762 13.7687 9.49194 13.9529 9.18855 14.0785C8.88516 14.2041 8.56 14.2687 8.23163 14.2687C7.90325 14.2687 7.57811 14.2039 7.27475 14.0783C6.97139 13.9526 6.69575 13.7683 6.46359 13.5361C6.23142 13.3039 6.04727 13.0282 5.92164 12.7248C5.79601 12.4214 5.73138 12.0963 5.73141 11.7679C5.73145 11.4395 5.79617 11.1144 5.92187 10.811C6.04756 10.5077 6.23178 10.232 6.464 9.99987L11.1782 5.2857L12.3565 6.46403Z" fill="#355DDB"/>
</g>
<defs>
<clipPath id="clip0_73_1358">
<rect width="20" height="20" fill="white"/>
</clipPath>
</defs>
</svg>
