<svg width="42" height="42" viewBox="0 0 42 42" fill="none" xmlns="http://www.w3.org/2000/svg">
<rect x="-1" y="1" width="40" height="40" transform="matrix(-1 0 0 1 40 0)" stroke="#0045A3" stroke-width="2"/>
<path d="M30 20C30.5523 20 31 20.4477 31 21C31 21.5523 30.5523 22 30 22L30 20ZM10.2929 21.7071C9.90237 21.3166 9.90237 20.6834 10.2929 20.2929L16.6569 13.9289C17.0474 13.5384 17.6805 13.5384 18.0711 13.9289C18.4616 14.3195 18.4616 14.9526 18.0711 15.3431L12.4142 21L18.0711 26.6569C18.4616 27.0474 18.4616 27.6805 18.0711 28.0711C17.6805 28.4616 17.0474 28.4616 16.6569 28.0711L10.2929 21.7071ZM30 22L11 22L11 20L30 20L30 22Z" fill="#0045A3"/>
</svg>
