<svg width="33" height="32" viewBox="0 0 33 32" fill="none" xmlns="http://www.w3.org/2000/svg">
<path d="M16.2377 0C7.45776 0 0.301983 7.12 0.301983 15.856C0.301983 18.656 1.04168 21.376 2.4246 23.776L0.17334 32L8.61555 29.792C10.9472 31.056 13.5683 31.728 16.2377 31.728C25.0176 31.728 32.1733 24.608 32.1733 15.872C32.1733 11.632 30.5171 7.648 27.51 4.656C24.503 1.648 20.499 0 16.2377 0ZM16.2537 2.672C19.7914 2.672 23.104 4.048 25.6125 6.544C28.105 9.04 29.4879 12.352 29.4879 15.872C29.4879 23.136 23.5382 29.04 16.2377 29.04C13.8578 29.04 11.5261 28.416 9.49997 27.2L9.01756 26.928L4.00048 28.24L5.33515 23.376L5.01354 22.864C3.69495 20.8 2.98741 18.352 2.98741 15.856C3.00349 8.592 8.93716 2.672 16.2537 2.672ZM10.5934 8.528C10.3362 8.528 9.90198 8.624 9.53213 9.024C9.17836 9.424 8.13314 10.4 8.13314 12.336C8.13314 14.288 9.56429 16.16 9.74118 16.432C9.9663 16.704 12.5713 20.704 16.5753 22.4C17.5241 22.832 18.2638 23.072 18.8427 23.248C19.7914 23.552 20.6598 23.504 21.3512 23.408C22.1231 23.296 23.699 22.448 24.0367 21.52C24.3743 20.592 24.3743 19.808 24.2779 19.632C24.1653 19.472 23.908 19.376 23.506 19.2C23.104 18.976 21.1422 18.016 20.7884 17.888C20.4186 17.76 20.1934 17.696 19.8879 18.08C19.6306 18.48 18.8588 19.376 18.6336 19.632C18.3924 19.904 18.1673 19.936 17.7814 19.744C17.3633 19.536 16.0769 19.12 14.5653 17.776C13.3753 16.72 12.5874 15.424 12.3462 15.024C12.1532 14.64 12.3301 14.4 12.5231 14.224C12.7 14.048 12.9573 13.76 13.1181 13.52C13.3271 13.296 13.3914 13.12 13.5201 12.864C13.6487 12.592 13.5844 12.368 13.4879 12.176C13.3914 12 12.5874 10.016 12.2497 9.232C11.9281 8.464 11.6065 8.56 11.3492 8.544C11.1241 8.544 10.8668 8.528 10.5934 8.528Z" fill="#FEFEFE"/>
</svg>
