<svg width="14" height="14" viewBox="0 0 14 14" fill="none" xmlns="http://www.w3.org/2000/svg">
<path fill-rule="evenodd" clip-rule="evenodd" d="M7.23757 11.563C6.9605 11.2996 6.96583 10.8776 7.24948 10.6203L10.8732 7.33351L7.24948 4.04673C6.96583 3.78945 6.9605 3.36737 7.23757 3.10399C7.51464 2.8406 7.9692 2.83565 8.25285 3.09293L12.4023 6.85661C12.5406 6.98205 12.6186 7.15399 12.6186 7.33351C12.6186 7.51303 12.5406 7.68497 12.4023 7.81041L8.25285 11.5741C7.9692 11.8314 7.51464 11.8264 7.23757 11.563Z" fill="#FEFEFE"/>
<path fill-rule="evenodd" clip-rule="evenodd" d="M1.0459 7.33354C1.0459 6.96535 1.36734 6.66687 1.76386 6.66687L11.2483 6.66687L11.2483 8.0002L1.76386 8.0002C1.36734 8.0002 1.0459 7.70173 1.0459 7.33354Z" fill="#FEFEFE"/>
</svg>
