<svg width="33" height="33" viewBox="0 0 33 33" fill="none" xmlns="http://www.w3.org/2000/svg">
<rect x="0.612852" y="0.612852" width="31.7743" height="31.7743" rx="9.75849" stroke="#FF6200" stroke-width="1.2257"/>
<path d="M23.5696 20.2101V22.3315C23.5704 22.5284 23.5301 22.7234 23.4512 22.9038C23.3723 23.0843 23.2565 23.2462 23.1114 23.3794C22.9663 23.5125 22.795 23.6139 22.6084 23.677C22.4219 23.7401 22.2242 23.7635 22.028 23.7458C19.852 23.5093 17.7618 22.7658 15.9254 21.5748C14.2168 20.4891 12.7682 19.0406 11.6825 17.332C10.4874 15.4872 9.74371 13.3868 9.5116 11.2011C9.49393 11.0055 9.51717 10.8084 9.57984 10.6224C9.64251 10.4363 9.74324 10.2653 9.87561 10.1203C10.008 9.97527 10.1691 9.85941 10.3487 9.78008C10.5283 9.70074 10.7225 9.65968 10.9188 9.65949H13.0402C13.3834 9.65611 13.7161 9.77764 13.9763 10.0014C14.2365 10.2252 14.4065 10.536 14.4545 10.8758C14.5441 11.5547 14.7101 12.2213 14.9495 12.8628C15.0447 13.116 15.0653 13.391 15.0089 13.6555C14.9525 13.9199 14.8214 14.1627 14.6313 14.3549L13.7332 15.253C14.7399 17.0234 16.2057 18.4892 17.9761 19.4958L18.8742 18.5978C19.0664 18.4077 19.3092 18.2766 19.5736 18.2202C19.8381 18.1638 20.1131 18.1844 20.3662 18.2796C21.0078 18.519 21.6744 18.685 22.3533 18.7746C22.6968 18.823 23.0105 18.996 23.2348 19.2607C23.459 19.5254 23.5782 19.8633 23.5696 20.2101Z" fill="#FF6200"/>
</svg>
