<svg width="40" height="40" viewBox="0 0 40 40" fill="none" xmlns="http://www.w3.org/2000/svg">
<g clip-path="url(#clip0_170_2)">
<path d="M20 40C31.0457 40 40 31.0457 40 20C40 8.9543 31.0457 0 20 0C8.9543 0 0 8.9543 0 20C0 31.0457 8.9543 40 20 40Z" fill="#039BE5"/>
<path d="M8.07094 18.8439L28.4682 11.0948C29.4149 10.7578 30.2417 11.3224 29.935 12.7329L29.9367 12.7312L26.4637 28.8529C26.2063 29.9959 25.517 30.2738 24.5527 29.7353L19.2639 25.8947L16.7129 28.3162C16.4308 28.5941 16.1928 28.8286 15.6463 28.8286L16.0218 23.5253L25.8238 14.8C26.2504 14.43 25.7286 14.2216 25.1662 14.5898L13.053 22.1044L7.83118 20.4993C6.69761 20.145 6.67293 19.3824 8.07094 18.8439Z" fill="white"/>
</g>
<defs>
<clipPath id="clip0_170_2">
<rect width="40" height="40" fill="white"/>
</clipPath>
</defs>
</svg>
