<svg width="40" height="40" viewBox="0 0 40 40" fill="none" xmlns="http://www.w3.org/2000/svg">
<path d="M20.0734 2C10.0634 2 1.90509 10.1583 1.90509 20.1683C1.90509 23.3767 2.74842 26.4933 4.32509 29.2433L1.75842 38.6667L11.3834 36.1367C14.0418 37.585 17.0301 38.355 20.0734 38.355C30.0834 38.355 38.2418 30.1967 38.2418 20.1867C38.2418 15.3283 36.3534 10.7633 32.9251 7.335C29.4968 3.88833 24.9318 2 20.0734 2ZM20.0918 5.06167C24.1251 5.06167 27.9018 6.63833 30.7618 9.49833C33.6034 12.3583 35.1801 16.1533 35.1801 20.1867C35.1801 28.51 28.3968 35.275 20.0734 35.275C17.3601 35.275 14.7018 34.56 12.3918 33.1667L11.8418 32.855L6.12176 34.3583L7.64342 28.785L7.27676 28.1983C5.77342 25.8333 4.96676 23.0283 4.96676 20.1683C4.98509 11.845 11.7501 5.06167 20.0918 5.06167ZM13.6384 11.7717C13.3451 11.7717 12.8501 11.8817 12.4284 12.34C12.0251 12.7983 10.8334 13.9167 10.8334 16.135C10.8334 18.3717 12.4651 20.5167 12.6668 20.8283C12.9234 21.14 15.8934 25.7233 20.4584 27.6667C21.5401 28.1617 22.3834 28.4367 23.0434 28.6383C24.1251 28.9867 25.1151 28.9317 25.9034 28.8217C26.7834 28.6933 28.5801 27.7217 28.9651 26.6583C29.3501 25.595 29.3501 24.6967 29.2401 24.495C29.1118 24.3117 28.8184 24.2017 28.3601 24C27.9018 23.7433 25.6651 22.6433 25.2618 22.4967C24.8401 22.35 24.5834 22.2767 24.2351 22.7167C23.9418 23.175 23.0618 24.2017 22.8051 24.495C22.5301 24.8067 22.2734 24.8433 21.8334 24.6233C21.3568 24.385 19.8901 23.9083 18.1668 22.3683C16.8101 21.1583 15.9118 19.6733 15.6368 19.215C15.4168 18.775 15.6184 18.5 15.8384 18.2983C16.0401 18.0967 16.3334 17.7667 16.5168 17.4917C16.7551 17.235 16.8284 17.0333 16.9751 16.74C17.1218 16.4283 17.0484 16.1717 16.9384 15.9517C16.8284 15.75 15.9118 13.4767 15.5268 12.5783C15.1601 11.6983 14.7934 11.8083 14.5001 11.79C14.2434 11.79 13.9501 11.7717 13.6384 11.7717Z" fill="#40C323"/>
</svg>
